<svg xmlns="http://www.w3.org/2000/svg" width="77.849" height="37.809" viewBox="0 0 77.849 37.809"><g transform="translate(-568 -1297)"><path d="M87.927,37H10.078A39.5,39.5,0,0,1,49.5,0,38.242,38.242,0,0,1,64.182,2.877a37.566,37.566,0,0,1,11.94,7.879A39.788,39.788,0,0,1,87.927,37Z" transform="translate(557.922 1297)" fill="#103090"/><path d="M24.4,6.809H10.078A7.27,7.27,0,0,1,17.332,0a7.037,7.037,0,0,1,2.7.529,6.913,6.913,0,0,1,2.2,1.45A7.322,7.322,0,0,1,24.4,6.809Z" transform="translate(589.922 1328)" fill="#fff"/></g></svg>