<svg xmlns="http://www.w3.org/2000/svg" width="76.797" height="36.5" viewBox="0 0 76.797 36.5"><g transform="translate(-478 -1891)"><path d="M76.8,36.5H0A38.97,38.97,0,0,1,38.89,0,37.725,37.725,0,0,1,53.373,2.838a37.058,37.058,0,0,1,11.779,7.772A39.25,39.25,0,0,1,76.8,36.5Z" transform="translate(478 1891)" fill="#720d5d"/><path d="M14.132,6.717H0A7.171,7.171,0,0,1,7.157,0,6.942,6.942,0,0,1,9.822.522a6.82,6.82,0,0,1,2.168,1.43,7.223,7.223,0,0,1,2.143,4.764Z" transform="translate(509.567 1920.595)" fill="#fff"/></g></svg>