<svg xmlns="http://www.w3.org/2000/svg" width="77.848" height="37.809" viewBox="0 0 77.848 37.809"><g transform="translate(-601 -2026)"><path d="M-1276.074,37h-77.848a39.331,39.331,0,0,1,12.329-26.244A39.342,39.342,0,0,1-1314.5,0a38.243,38.243,0,0,1,14.682,2.877,37.566,37.566,0,0,1,11.94,7.879A39.788,39.788,0,0,1-1276.074,37Z" transform="translate(1954.922 2026)" fill="#d64000"/><path d="M24.4,6.809H10.078A7.27,7.27,0,0,1,17.332,0a7.037,7.037,0,0,1,2.7.529,6.913,6.913,0,0,1,2.2,1.45A7.322,7.322,0,0,1,24.4,6.809Z" transform="translate(622.922 2057)" fill="#fff"/></g></svg>