<svg xmlns="http://www.w3.org/2000/svg" viewBox="0 0 24 12"><defs><style>.cls-1{fill:#103090;}.cls-2{opacity:0.8;}.cls-3{fill:#fff;}.cls-4{fill:#009257;}.cls-5{fill:#d69200;}</style></defs><title>playbutton-gold</title><g id="blue-_103090_copy_2" data-name="blue-#103090 copy 2"><path class="cls-1" d="M12.5,0A12,12,0,0,0,.5,12h24A12,12,0,0,0,12.5,0Z" transform="translate(-0.5)"/><g class="cls-2"><path class="cls-3" d="M16.63,8.5,11,11V6Z" transform="translate(-0.5)"/></g></g><g id="green-_009257" data-name="green-#009257"><path class="cls-4" d="M12.5,0A12,12,0,0,0,.5,12h24A12,12,0,0,0,12.5,0Z" transform="translate(-0.5)"/><g class="cls-2"><path class="cls-3" d="M16.63,8.5,11,11V6Z" transform="translate(-0.5)"/></g></g><g id="gold-_D69200" data-name="gold-#D69200"><path class="cls-5" d="M12.5,0A12,12,0,0,0,.5,12h24A12,12,0,0,0,12.5,0Z" transform="translate(-0.5)"/><g class="cls-2"><path class="cls-3" d="M16.63,8.5,11,11V6Z" transform="translate(-0.5)"/></g></g></svg>